<svg width="290" height="113" viewBox="0 0 290 113" fill="none" xmlns="http://www.w3.org/2000/svg">
<path d="M0.0951709 91.0795V73.1577L45.0312 2.36363H60.483V27.1704H51.3381L23.0099 72.0014V72.8423H86.8665V91.0795H0.0951709ZM51.7585 110V85.6136L52.179 77.6776V2.36363H73.5171V110H51.7585ZM144.232 112.365C135.192 112.33 127.414 110.105 120.897 105.69C114.415 101.276 109.422 94.8812 105.918 86.5071C102.45 78.133 100.733 68.0597 100.768 56.2869C100.768 44.5492 102.502 34.5459 105.971 26.277C109.475 18.008 114.468 11.7187 120.95 7.40909C127.467 3.06439 135.228 0.892041 144.232 0.892041C153.237 0.892041 160.98 3.06439 167.462 7.40909C173.979 11.7538 178.99 18.0606 182.494 26.3295C185.997 34.5634 187.732 44.5492 187.697 56.2869C187.697 68.0947 185.945 78.1856 182.441 86.5597C178.972 94.9337 173.997 101.328 167.515 105.743C161.033 110.158 153.272 112.365 144.232 112.365ZM144.232 93.4972C150.399 93.4972 155.322 90.3963 159.001 84.1946C162.68 77.9929 164.502 68.6903 164.467 56.2869C164.467 48.1231 163.626 41.3258 161.944 35.8949C160.297 30.464 157.95 26.3821 154.901 23.6491C151.888 20.9162 148.332 19.5497 144.232 19.5497C138.101 19.5497 133.195 22.6155 129.516 28.7472C125.837 34.8788 123.98 44.0587 123.945 56.2869C123.945 64.5559 124.769 71.4583 126.415 76.9943C128.097 82.4953 130.462 86.6297 133.511 89.3977C136.559 92.1307 140.133 93.4972 144.232 93.4972ZM202.294 91.0795V73.1577L247.23 2.36363H262.682V27.1704H253.537L225.209 72.0014V72.8423H289.066V91.0795H202.294ZM253.958 110V85.6136L254.378 77.6776V2.36363H275.716V110H253.958Z" fill="white"/>
</svg>
